<svg width="32" height="32" viewBox="0 0 32 32" fill="none" xmlns="http://www.w3.org/2000/svg">
<rect width="32" height="32" rx="6" fill="#F7F7FF"/>
<g clip-path="url(#clip0_171_7781)">
<path d="M23.5566 8.01258C24.148 8.60404 24.1415 9.56501 23.542 10.1483L16.9367 16.5751C16.6567 16.8475 16.2814 17 15.8907 17L14 17L14 15.1144C14 14.7207 14.1548 14.3427 14.431 14.0621L20.8983 7.49229C21.4827 6.89862 22.4389 6.89486 23.0279 7.48391L23.5566 8.01258Z" fill="#9999EE"/>
<path d="M15 8H12H11C9.89543 8 9 8.89543 9 10V20C9 21.1046 9.89543 22 11 22H21C22.1046 22 23 21.1046 23 20V17" stroke="#5B5CE2" stroke-width="2" stroke-linecap="round" stroke-linejoin="round"/>
</g>
<defs>
<clipPath id="clip0_171_7781">
<rect width="16" height="16" fill="white" transform="translate(8 7)"/>
</clipPath>
</defs>
</svg>
